<svg width="35" height="35" viewBox="0 0 35 35" fill="none" xmlns="http://www.w3.org/2000/svg">
<path d="M7.2915 18.6078C7.2915 16.6277 7.2915 15.6377 7.69176 14.7674C8.09202 13.8972 8.8437 13.2529 10.3471 11.9643L11.8054 10.7143C14.5228 8.38512 15.8814 7.22055 17.4998 7.22055C19.1183 7.22055 20.4769 8.38512 23.1943 10.7143L24.6526 11.9643C26.156 13.2529 26.9077 13.8972 27.3079 14.7674C27.7082 15.6377 27.7082 16.6277 27.7082 18.6078V24.7917C27.7082 27.5415 27.7082 28.9165 26.8539 29.7707C25.9996 30.625 24.6247 30.625 21.8748 30.625H13.1248C10.375 30.625 9.00005 30.625 8.14578 29.7707C7.2915 28.9165 7.2915 27.5415 7.2915 24.7917V18.6078Z" stroke="white" stroke-width="2"/>
<path d="M21.1457 30.625V22.875C21.1457 22.3227 20.698 21.875 20.1457 21.875H14.854C14.3017 21.875 13.854 22.3227 13.854 22.875V30.625" stroke="white" stroke-width="2" stroke-linecap="round" stroke-linejoin="round"/>
</svg>
