<svg width="50" height="50" viewBox="0 0 50 50" fill="none" xmlns="http://www.w3.org/2000/svg">
<path d="M33.3333 6.25L33.3333 12.5M16.6666 6.25L16.6666 12.5" stroke="#037E8C" stroke-width="2" stroke-linecap="round"/>
<path fill-rule="evenodd" clip-rule="evenodd" d="M31.3333 8.33334H31.25H18.75H18.6667L18.6667 12.5C18.6667 13.6046 17.7712 14.5 16.6667 14.5C15.5621 14.5 14.6667 13.6046 14.6667 12.5L14.6667 8.36698C11.3801 8.46083 9.42806 8.81644 8.08058 10.1639C6.25 11.9945 6.25 14.9408 6.25 20.8333V31.25C6.25 37.1426 6.25 40.0888 8.08058 41.9194C9.91116 43.75 12.8574 43.75 18.75 43.75H18.75H31.25H31.25C37.1426 43.75 40.0888 43.75 41.9194 41.9194C43.75 40.0888 43.75 37.1426 43.75 31.25V20.8333C43.75 14.9408 43.75 11.9945 41.9194 10.1639C40.5719 8.81644 38.6199 8.46083 35.3333 8.36698L35.3333 12.5C35.3333 13.6046 34.4379 14.5 33.3333 14.5C32.2288 14.5 31.3333 13.6046 31.3333 12.5L31.3333 8.33334ZM15.6667 25C15.6667 24.4477 16.1144 24 16.6667 24L33.3333 24C33.8856 24 34.3333 24.4477 34.3333 25C34.3333 25.5523 33.8856 26 33.3333 26H16.6667C16.1144 26 15.6667 25.5523 15.6667 25ZM16.6667 32.3333C16.1144 32.3333 15.6667 32.781 15.6667 33.3333C15.6667 33.8856 16.1144 34.3333 16.6667 34.3333H33.3333C33.8856 34.3333 34.3333 33.8856 34.3333 33.3333C34.3333 32.781 33.8856 32.3333 33.3333 32.3333H16.6667Z" fill="white"/>
</svg>
