<svg width="35" height="35" viewBox="0 0 35 35" fill="none" xmlns="http://www.w3.org/2000/svg">
<path d="M2.9165 17.5L2.13564 16.8753L1.63588 17.5L2.13564 18.1247L2.9165 17.5ZM16.0415 18.5C16.5938 18.5 17.0415 18.0523 17.0415 17.5C17.0415 16.9477 16.5938 16.5 16.0415 16.5V18.5ZM7.96897 9.58363L2.13564 16.8753L3.69737 18.1247L9.53071 10.833L7.96897 9.58363ZM2.13564 18.1247L7.96897 25.4164L9.53071 24.167L3.69737 16.8753L2.13564 18.1247ZM2.9165 18.5H16.0415V16.5H2.9165V18.5Z" fill="white"/>
<path d="M14.5835 11.8591V9.22184C14.5835 7.6035 14.5835 6.79433 15.0575 6.23484C15.5314 5.67535 16.3296 5.54232 17.9259 5.27627L25.0971 4.08107C28.3402 3.54055 29.9617 3.2703 31.0226 4.16899C32.0835 5.06769 32.0835 6.7116 32.0835 9.99943V25.0006C32.0835 28.2884 32.0835 29.9323 31.0226 30.831C29.9617 31.7297 28.3402 31.4595 25.0971 30.9189L17.9259 29.7237C16.3296 29.4577 15.5314 29.3247 15.0575 28.7652C14.5835 28.2057 14.5835 27.3965 14.5835 25.7782V23.4295" stroke="white" stroke-width="2"/>
</svg>
