<svg width="35" height="35" viewBox="0 0 35 35" fill="none" xmlns="http://www.w3.org/2000/svg">
<path fill-rule="evenodd" clip-rule="evenodd" d="M30.625 8.75H4.375V13.125C5.22872 13.125 5.65558 13.125 5.99617 13.2532C6.5352 13.4561 6.9606 13.8815 7.16348 14.4205C7.29167 14.7611 7.29167 15.1879 7.29167 16.0417V24.625C7.29167 27.4534 7.29167 28.8676 8.17035 29.7463C9.04903 30.625 10.4632 30.625 13.2917 30.625H21.7083C24.5368 30.625 25.951 30.625 26.8297 29.7463C27.7083 28.8676 27.7083 27.4534 27.7083 24.625V16.0417C27.7083 15.1879 27.7083 14.7611 27.8365 14.4205C28.0394 13.8815 28.4648 13.4561 29.0038 13.2532C29.3444 13.125 29.7713 13.125 30.625 13.125V8.75ZM14.8542 16.0417C14.8542 15.4894 14.4065 15.0417 13.8542 15.0417C13.3019 15.0417 12.8542 15.4894 12.8542 16.0417V23.3333C12.8542 23.8856 13.3019 24.3333 13.8542 24.3333C14.4065 24.3333 14.8542 23.8856 14.8542 23.3333V16.0417ZM22.1458 16.0417C22.1458 15.4894 21.6981 15.0417 21.1458 15.0417C20.5935 15.0417 20.1458 15.4894 20.1458 16.0417V23.3333C20.1458 23.8856 20.5935 24.3333 21.1458 24.3333C21.6981 24.3333 22.1458 23.8856 22.1458 23.3333V16.0417Z" fill="#FF0000"/>
<path d="M14.683 4.91544C14.8492 4.7604 15.2154 4.6234 15.7248 4.52568C16.2341 4.42796 16.8583 4.375 17.5003 4.375C18.1424 4.375 18.7665 4.42796 19.2759 4.52568C19.7853 4.62339 20.1514 4.7604 20.3176 4.91544" stroke="#FF0000" stroke-width="2" stroke-linecap="round"/>
</svg>
