<svg width="35" height="35" viewBox="0 0 35 35" fill="none" xmlns="http://www.w3.org/2000/svg">
<path d="M20.5966 4.71766L19.6016 4.81717L19.6016 4.81717L20.5966 4.71766ZM20.1825 3.17522L20.8535 2.43377L20.8535 2.43377L20.1825 3.17522ZM20.653 5.282L21.6481 5.1825L21.6481 5.1825L20.653 5.282ZM23.9096 6.63091L23.2763 5.85695L23.2763 5.85695L23.9096 6.63091ZM24.3485 6.27179L24.9817 7.04575L24.9818 7.04575L24.3485 6.27179ZM25.732 5.47392L25.6822 6.47267L25.6822 6.47267L25.732 5.47392ZM27.0292 6.40549L26.3221 7.1126L26.3221 7.1126L27.0292 6.40549ZM28.5943 7.97059L27.8872 8.67769L27.8872 8.67769L28.5943 7.97059ZM28.728 10.6513L27.954 10.018L27.954 10.018L28.728 10.6513ZM28.3688 11.0902L29.1428 11.7235L29.1428 11.7235L28.3688 11.0902ZM29.7178 14.3468L29.8173 13.3518L29.7178 14.3468ZM30.2822 14.4032L30.3817 13.4082L30.3817 13.4082L30.2822 14.4032ZM31.8246 14.8173L31.0832 15.4883L31.0832 15.4883L31.8246 14.8173ZM31.8246 20.1827L31.0832 19.5117L31.0832 19.5117L31.8246 20.1827ZM30.2822 20.5968V21.5968H30.3321L30.3817 21.5918L30.2822 20.5968ZM30.2822 20.5968V19.5968H30.2323L30.1827 19.6017L30.2822 20.5968ZM29.7183 20.6532L29.6188 19.6581L29.6188 19.6581L29.7183 20.6532ZM28.3694 23.9097L29.1434 23.2765L29.1434 23.2765L28.3694 23.9097ZM28.7281 24.3481L27.9541 24.9813L27.9541 24.9813L28.7281 24.3481ZM29.5259 25.7316L30.5247 25.7814L30.5247 25.7814L29.5259 25.7316ZM28.5944 27.0288L29.3015 27.7359L29.3015 27.7359L28.5944 27.0288ZM27.0293 28.5939L27.6801 29.3531L27.7092 29.3281L27.7364 29.301L27.0293 28.5939ZM27.0293 28.5939L26.3785 27.8346L26.3493 27.8596L26.3221 27.8868L27.0293 28.5939ZM25.7321 29.5254L25.7819 30.5242L25.7819 30.5242L25.7321 29.5254ZM24.3486 28.7276L24.9818 27.9536L24.9818 27.9536L24.3486 28.7276ZM23.9097 28.3685L23.2764 29.1424L23.2764 29.1424L23.9097 28.3685ZM21.4509 27.0381L21.0683 26.1142L21.0683 26.1142L21.4509 27.0381ZM20.6531 29.7174L21.6481 29.8169L21.6481 29.8169L20.6531 29.7174ZM20.5966 30.2823L19.6016 30.1828L19.6016 30.1828L20.5966 30.2823ZM20.1825 31.8248L20.8535 32.5662L20.8535 32.5662L20.1825 31.8248ZM14.8172 31.8248L14.1461 32.5662L14.1461 32.5662L14.8172 31.8248ZM14.4031 30.2823L15.3981 30.1828L15.3981 30.1828L14.4031 30.2823ZM14.3466 29.7179L13.3516 29.8174L13.3516 29.8174L14.3466 29.7179ZM13.5488 27.0386L13.1661 27.9625L13.1661 27.9625L13.5488 27.0386ZM11.0901 28.369L10.4568 27.5951L10.4568 27.5951L11.0901 28.369ZM10.651 28.7282L11.2843 29.5022L11.2843 29.5022L10.651 28.7282ZM9.26757 29.5261L9.21775 30.5249L9.21776 30.5249L9.26757 29.5261ZM7.97035 28.5945L7.26325 29.3016L7.26325 29.3016L7.97035 28.5945ZM6.40526 27.0294L7.11236 26.3223L7.11236 26.3223L6.40526 27.0294ZM6.27156 24.3487L7.04551 24.982L7.04551 24.982L6.27156 24.3487ZM6.63073 23.9097L5.85678 23.2765L5.85678 23.2765L6.63073 23.9097ZM7.96111 21.451L7.03723 21.8337L7.03723 21.8337L7.96111 21.451ZM5.28183 20.6532L5.38133 19.6582L5.38133 19.6582L5.28183 20.6532ZM4.71749 20.5968L4.817 19.6017L4.76737 19.5968H4.71749V20.5968ZM4.71748 20.5968L4.61797 21.5918L4.6676 21.5968H4.71748V20.5968ZM3.17505 20.1827L3.9165 19.5117L3.9165 19.5117L3.17505 20.1827ZM3.17505 14.8173L2.4336 14.1463L2.4336 14.1463L3.17505 14.8173ZM4.7175 14.4032L4.817 15.3983L4.817 15.3983L4.7175 14.4032ZM5.28237 14.3467L5.18287 13.3517L5.18287 13.3517L5.28237 14.3467ZM7.96166 13.5489L8.88554 13.9316L8.88554 13.9316L7.96166 13.5489ZM6.63128 11.0902L7.40524 10.457L6.63128 11.0902ZM6.27162 10.6506L5.49766 11.2839L5.49766 11.2839L6.27162 10.6506ZM6.40532 7.96993L5.69821 7.26282L5.69821 7.26282L6.40532 7.96993ZM7.97042 6.40483L8.67753 7.11194L8.67753 7.11194L7.97042 6.40483ZM9.26764 5.47325L9.31745 6.47201L9.31745 6.47201L9.26764 5.47325ZM10.6511 6.27113L11.2843 5.49717L11.2843 5.49717L10.6511 6.27113ZM11.0901 6.63034L10.4569 7.40429L10.4569 7.40429L11.0901 6.63034ZM14.3467 5.28143L13.3517 5.18193L13.3517 5.18193L14.3467 5.28143ZM14.4031 4.71766L15.3981 4.81717L15.3981 4.81717L14.4031 4.71766ZM14.8172 3.17522L14.1461 2.43377L14.1461 2.43377L14.8172 3.17522ZM21.5916 4.61816C21.5515 4.2168 21.5138 3.82017 21.4388 3.49655C21.3573 3.14511 21.206 2.75273 20.8535 2.43377L19.5115 3.91667C19.4448 3.85626 19.4577 3.80713 19.4904 3.9483C19.5296 4.11728 19.5561 4.3626 19.6016 4.81717L21.5916 4.61816ZM21.6481 5.1825L21.5916 4.61816L19.6016 4.81717L19.658 5.38151L21.6481 5.1825ZM21.8336 7.03741C22.0075 7.10944 21.9629 7.25105 21.8757 6.90438C21.7881 6.5563 21.7331 6.03307 21.6481 5.1825L19.658 5.38151C19.7363 6.16447 19.8038 6.8664 19.9361 7.39233C20.0688 7.91967 20.3415 8.58416 21.0682 8.88517L21.8336 7.03741ZM23.2763 5.85695C22.6148 6.39825 22.2059 6.72935 21.8978 6.91356C21.591 7.09702 21.6597 6.96539 21.8336 7.03741L21.0682 8.88517C21.7949 9.18618 22.4576 8.90915 22.9243 8.63007C23.3897 8.35174 23.9338 7.90314 24.5428 7.40487L23.2763 5.85695ZM23.7153 5.49783L23.2763 5.85695L24.5428 7.40487L24.9817 7.04575L23.7153 5.49783ZM25.7818 4.47516C25.307 4.45148 24.9226 4.62195 24.6165 4.81284C24.3346 4.98861 24.0275 5.24241 23.7153 5.49783L24.9818 7.04575C25.3353 6.75646 25.5275 6.60172 25.6747 6.50994C25.7977 6.43326 25.7721 6.47716 25.6822 6.47267L25.7818 4.47516ZM27.7363 5.69838C27.4511 5.41316 27.1707 5.13007 26.9077 4.92711C26.6221 4.70672 26.2566 4.49884 25.7818 4.47516L25.6822 6.47267C25.5923 6.46819 25.5712 6.42196 25.6859 6.5105C25.8232 6.61647 25.9991 6.78956 26.3221 7.1126L27.7363 5.69838ZM29.3014 7.26348L27.7363 5.69838L26.3221 7.1126L27.8872 8.67769L29.3014 7.26348ZM30.5246 9.21799C30.501 8.74323 30.2931 8.37767 30.0727 8.09206C29.8697 7.82905 29.5866 7.5487 29.3014 7.26348L27.8872 8.67769C28.2102 9.00073 28.3833 9.17657 28.4893 9.3139C28.5778 9.42863 28.5316 9.40754 28.5271 9.31762L30.5246 9.21799ZM29.502 11.2845C29.7574 10.9723 30.0112 10.6652 30.187 10.3833C30.3778 10.0772 30.5483 9.69275 30.5246 9.21799L28.5271 9.31762C28.5226 9.2277 28.5665 9.20212 28.4899 9.32508C28.3981 9.47227 28.2433 9.66447 27.954 10.018L29.502 11.2845ZM29.1428 11.7235L29.502 11.2845L27.954 10.018L27.5949 10.457L29.1428 11.7235ZM27.9623 13.1663C28.0344 13.3402 27.9027 13.4088 28.0862 13.102C28.2704 12.7939 28.6015 12.3851 29.1428 11.7235L27.5949 10.457C27.0966 11.066 26.648 11.6101 26.3697 12.0755C26.0906 12.5422 25.8136 13.2049 26.1146 13.9316L27.9623 13.1663ZM29.8173 13.3518C28.9667 13.2667 28.4435 13.2117 28.0954 13.1241C27.7487 13.0369 27.8903 12.9924 27.9623 13.1663L26.1146 13.9316C26.4156 14.6583 27.0801 14.931 27.6074 15.0637C28.1334 15.196 28.8353 15.2635 29.6182 15.3418L29.8173 13.3518ZM30.3817 13.4082L29.8173 13.3518L29.6182 15.3418L30.1827 15.3983L30.3817 13.4082ZM32.5661 14.1463C32.2471 13.7939 31.8547 13.6426 31.5033 13.5611C31.1797 13.486 30.783 13.4483 30.3817 13.4082L30.1827 15.3983C30.6372 15.4437 30.8826 15.4702 31.0515 15.5094C31.1927 15.5421 31.1436 15.5551 31.0832 15.4883L32.5661 14.1463ZM33.0832 16.3933C33.0832 15.9899 33.0851 15.5915 33.0426 15.2621C32.9965 14.9043 32.885 14.4988 32.5661 14.1463L31.0832 15.4883C31.0228 15.4216 31.0405 15.374 31.0591 15.5177C31.0812 15.6897 31.0832 15.9365 31.0832 16.3933H33.0832ZM33.0832 18.6067V16.3933H31.0832V18.6067H33.0832ZM32.5661 20.8537C32.885 20.5012 32.9965 20.0958 33.0426 19.738C33.0851 19.4085 33.0832 19.0101 33.0832 18.6067H31.0832C31.0832 19.0635 31.0812 19.3103 31.0591 19.4823C31.0405 19.626 31.0228 19.5784 31.0832 19.5117L32.5661 20.8537ZM30.3817 21.5918C30.7831 21.5517 31.1797 21.514 31.5033 21.4389C31.8547 21.3574 32.2471 21.2061 32.5661 20.8537L31.0832 19.5117C31.1436 19.4449 31.1927 19.4579 31.0515 19.4906C30.8826 19.5298 30.6373 19.5563 30.1827 19.6017L30.3817 21.5918ZM30.2822 21.5968H30.2822V19.5968H30.2822V21.5968ZM29.8178 21.6482L30.3817 21.5918L30.1827 19.6017L29.6188 19.6581L29.8178 21.6482ZM27.9629 21.8337C27.8909 22.0076 27.7493 21.963 28.0959 21.8758C28.444 21.7882 28.9672 21.7333 29.8178 21.6482L29.6188 19.6581C28.8358 19.7364 28.1339 19.8039 27.608 19.9363C27.0806 20.0689 26.4161 20.3416 26.1151 21.0683L27.9629 21.8337ZM29.1434 23.2765C28.602 22.6149 28.271 22.206 28.0867 21.898C27.9033 21.5912 28.0349 21.6598 27.9629 21.8337L26.1151 21.0683C25.8141 21.795 26.0912 22.4577 26.3702 22.9244C26.6486 23.3899 27.0972 23.9339 27.5954 24.5429L29.1434 23.2765ZM29.502 23.7149L29.1434 23.2765L27.5954 24.5429L27.9541 24.9813L29.502 23.7149ZM30.5247 25.7814C30.5484 25.3066 30.3779 24.9222 30.187 24.6161C30.0112 24.3342 29.7575 24.027 29.502 23.7148L27.9541 24.9813C28.2434 25.3349 28.3981 25.5271 28.4899 25.6743C28.5666 25.7972 28.5227 25.7717 28.5272 25.6817L30.5247 25.7814ZM29.3015 27.7359C29.5867 27.4507 29.8698 27.1703 30.0727 26.9073C30.2931 26.6217 30.501 26.2561 30.5247 25.7814L28.5272 25.6817C28.5317 25.5918 28.5779 25.5707 28.4894 25.6855C28.3834 25.8228 28.2103 25.9986 27.8873 26.3217L29.3015 27.7359ZM27.7364 29.301L29.3015 27.7359L27.8873 26.3217L26.3222 27.8868L27.7364 29.301ZM27.68 29.3531L27.6801 29.3531L26.3785 27.8346L26.3785 27.8346L27.68 29.3531ZM25.7819 30.5242C26.2566 30.5005 26.6222 30.2926 26.9078 30.0723C27.1708 29.8693 27.4511 29.5862 27.7364 29.301L26.3221 27.8868C25.9991 28.2098 25.8233 28.3829 25.686 28.4889C25.5712 28.5774 25.5923 28.5312 25.6822 28.5267L25.7819 30.5242ZM23.7153 29.5015C24.0275 29.757 24.3347 30.0108 24.6165 30.1865C24.9227 30.3774 25.3071 30.5479 25.7819 30.5242L25.6822 28.5267C25.7722 28.5222 25.7977 28.5661 25.6748 28.4894C25.5276 28.3976 25.3354 28.2429 24.9818 27.9536L23.7153 29.5015ZM23.2764 29.1424L23.7153 29.5015L24.9818 27.9536L24.5429 27.5945L23.2764 29.1424ZM21.8336 27.962C21.6597 28.034 21.5911 27.9023 21.8979 28.0858C22.206 28.27 22.6148 28.6011 23.2764 29.1424L24.5429 27.5945C23.9339 27.0962 23.3898 26.6476 22.9244 26.3693C22.4577 26.0902 21.795 25.8132 21.0683 26.1142L21.8336 27.962ZM21.6481 29.8169C21.7332 28.9663 21.7882 28.4431 21.8758 28.095C21.963 27.7483 22.0075 27.8899 21.8336 27.9619L21.0683 26.1142C20.3416 26.4152 20.0689 27.0797 19.9362 27.607C19.8039 28.133 19.7364 28.8349 19.6581 29.6179L21.6481 29.8169ZM21.5916 30.3819L21.6481 29.8169L19.6581 29.6179L19.6016 30.1828L21.5916 30.3819ZM20.8535 32.5662C21.206 32.2473 21.3573 31.8549 21.4388 31.5035C21.5138 31.1798 21.5515 30.7832 21.5916 30.3818L19.6016 30.1828C19.5561 30.6374 19.5296 30.8827 19.4904 31.0517C19.4577 31.1929 19.4448 31.1438 19.5115 31.0833L20.8535 32.5662ZM18.6065 33.0833C19.0099 33.0833 19.4083 33.0853 19.7378 33.0428C20.0956 32.9967 20.5011 32.8852 20.8535 32.5662L19.5115 31.0833C19.5783 31.0229 19.6259 31.0407 19.4821 31.0592C19.3101 31.0814 19.0634 31.0833 18.6065 31.0833V33.0833ZM16.3931 33.0833H18.6065V31.0833H16.3931V33.0833ZM14.1461 32.5662C14.4986 32.8852 14.9041 32.9967 15.2619 33.0428C15.5914 33.0853 15.9898 33.0833 16.3931 33.0833V31.0833C15.9363 31.0833 15.6896 31.0814 15.5175 31.0592C15.3738 31.0407 15.4214 31.0229 15.4882 31.0833L14.1461 32.5662ZM13.408 30.3818C13.4482 30.7832 13.4859 31.1798 13.5609 31.5035C13.6424 31.8549 13.7937 32.2473 14.1461 32.5662L15.4882 31.0833C15.5549 31.1438 15.542 31.1929 15.5092 31.0517C15.47 30.8827 15.4436 30.6374 15.3981 30.1828L13.408 30.3818ZM13.3516 29.8174L13.408 30.3818L15.3981 30.1828L15.3417 29.6184L13.3516 29.8174ZM13.1661 27.9625C12.9922 27.8905 13.0368 27.7489 13.124 28.0956C13.2115 28.4436 13.2665 28.9669 13.3516 29.8174L15.3417 29.6184C15.2634 28.8355 15.1958 28.1335 15.0635 27.6076C14.9309 27.0803 14.6582 26.4158 13.9315 26.1148L13.1661 27.9625ZM11.7233 29.143C12.3849 28.6017 12.7938 28.2706 13.1018 28.0864C13.4086 27.9029 13.34 28.0345 13.1661 27.9625L13.9315 26.1148C13.2048 25.8138 12.5421 26.0908 12.0754 26.3699C11.6099 26.6482 11.0658 27.0968 10.4568 27.5951L11.7233 29.143ZM11.2843 29.5022L11.7233 29.143L10.4568 27.5951L10.0178 27.9543L11.2843 29.5022ZM9.21776 30.5249C9.69252 30.5485 10.077 30.3781 10.3831 30.1872C10.665 30.0114 10.9721 29.7576 11.2843 29.5022L10.0178 27.9543C9.66424 28.2436 9.47204 28.3983 9.32485 28.4901C9.20188 28.5668 9.22746 28.5229 9.31738 28.5274L9.21776 30.5249ZM7.26325 29.3016C7.54847 29.5869 7.82882 29.87 8.09182 30.0729C8.37743 30.2933 8.743 30.5012 9.21775 30.5249L9.31739 28.5274C9.40731 28.5318 9.42839 28.5781 9.31367 28.4895C9.17634 28.3836 9.00049 28.2105 8.67746 27.8874L7.26325 29.3016ZM5.69815 27.7365L7.26325 29.3016L8.67746 27.8874L7.11236 26.3223L5.69815 27.7365ZM4.47492 25.782C4.4986 26.2568 4.70649 26.6224 4.92688 26.908C5.12983 27.171 5.41293 27.4513 5.69815 27.7365L7.11236 26.3223C6.78933 25.9993 6.61624 25.8235 6.51026 25.6861C6.42173 25.5714 6.46796 25.5925 6.47244 25.6824L4.47492 25.782ZM5.4976 23.7155C5.24217 24.0277 4.98838 24.3348 4.8126 24.6167C4.62172 24.9228 4.45124 25.3073 4.47492 25.782L6.47244 25.6824C6.47693 25.7723 6.43303 25.7979 6.50971 25.6749C6.60149 25.5278 6.75623 25.3356 7.04551 24.982L5.4976 23.7155ZM5.85678 23.2765L5.4976 23.7155L7.04551 24.982L7.40469 24.543L5.85678 23.2765ZM7.03723 21.8337C6.96521 21.6598 7.09684 21.5912 6.91338 21.898C6.72917 22.2061 6.39808 22.6149 5.85678 23.2765L7.40469 24.543C7.90297 23.934 8.35156 23.3899 8.62989 22.9245C8.90897 22.4578 9.186 21.7951 8.88499 21.0684L7.03723 21.8337ZM5.18232 21.6482C6.03289 21.7333 6.55612 21.7883 6.9042 21.8759C7.25087 21.9631 7.10926 22.0076 7.03723 21.8337L8.88499 21.0684C8.58398 20.3417 7.9195 20.069 7.39215 19.9363C6.86622 19.804 6.16429 19.7365 5.38133 19.6582L5.18232 21.6482ZM4.61799 21.5918L5.18232 21.6482L5.38133 19.6582L4.817 19.6017L4.61799 21.5918ZM4.71748 21.5968H4.71749V19.5968H4.71748V21.5968ZM2.4336 20.8537C2.75256 21.2061 3.14494 21.3574 3.49637 21.4389C3.81999 21.514 4.21661 21.5517 4.61797 21.5918L4.81698 19.6017C4.36242 19.5563 4.11711 19.5298 3.94813 19.4906C3.80696 19.4579 3.85609 19.4449 3.9165 19.5117L2.4336 20.8537ZM1.9165 18.6067C1.9165 19.0101 1.91456 19.4085 1.95703 19.738C2.00314 20.0958 2.11464 20.5012 2.4336 20.8537L3.9165 19.5117C3.97692 19.5784 3.95914 19.626 3.94062 19.4823C3.91845 19.3103 3.9165 19.0635 3.9165 18.6067H1.9165ZM1.9165 16.3933V18.6067H3.9165V16.3933H1.9165ZM2.4336 14.1463C2.11464 14.4988 2.00314 14.9043 1.95703 15.2621C1.91456 15.5915 1.9165 15.9899 1.9165 16.3933H3.9165C3.9165 15.9365 3.91845 15.6897 3.94062 15.5177C3.95914 15.374 3.97692 15.4216 3.9165 15.4883L2.4336 14.1463ZM4.61799 13.4082C4.21663 13.4483 3.82 13.486 3.49638 13.5611C3.14494 13.6426 2.75256 13.7939 2.4336 14.1463L3.9165 15.4883C3.85609 15.5551 3.80696 15.5421 3.94813 15.5094C4.11711 15.4702 4.36243 15.4437 4.817 15.3983L4.61799 13.4082ZM5.18287 13.3517L4.61799 13.4082L4.817 15.3983L5.38188 15.3418L5.18287 13.3517ZM7.03778 13.1662C7.10981 12.9923 7.25142 13.0369 6.90475 13.1241C6.55667 13.2117 6.03344 13.2667 5.18287 13.3517L5.38188 15.3418C6.16484 15.2635 6.86677 15.196 7.3927 15.0637C7.92004 14.931 8.58453 14.6583 8.88554 13.9316L7.03778 13.1662ZM5.85732 11.7234C6.39862 12.385 6.72971 12.7939 6.91393 13.1019C7.09739 13.4087 6.96576 13.3401 7.03778 13.1662L8.88554 13.9316C9.18655 13.2049 8.90951 12.5422 8.63044 12.0755C8.3521 11.61 7.90351 11.066 7.40524 10.457L5.85732 11.7234ZM5.49766 11.2839L5.85732 11.7234L7.40524 10.457L7.04558 10.0174L5.49766 11.2839ZM4.47499 9.21733C4.45131 9.69209 4.62179 10.0765 4.81267 10.3826C4.98844 10.6645 5.24224 10.9717 5.49766 11.2839L7.04558 10.0174C6.75629 9.66381 6.60155 9.47161 6.50977 9.32442C6.43309 9.20145 6.47699 9.22703 6.47251 9.31696L4.47499 9.21733ZM5.69821 7.26282C5.41299 7.54804 5.1299 7.82839 4.92695 8.0914C4.70655 8.377 4.49867 8.74257 4.47499 9.21733L6.47251 9.31696C6.46802 9.40688 6.4218 9.42797 6.51033 9.31324C6.6163 9.17591 6.7894 9.00007 7.11243 8.67703L5.69821 7.26282ZM7.26331 5.69772L5.69821 7.26282L7.11243 8.67703L8.67753 7.11194L7.26331 5.69772ZM9.21782 4.4745C8.74306 4.49817 8.3775 4.70606 8.09189 4.92645C7.82888 5.12941 7.54853 5.4125 7.26331 5.69772L8.67753 7.11194C9.00056 6.7889 9.1764 6.61581 9.31373 6.50984C9.42846 6.4213 9.40737 6.46753 9.31745 6.47201L9.21782 4.4745ZM11.2843 5.49717C10.9722 5.24174 10.665 4.98795 10.3831 4.81217C10.077 4.62129 9.69258 4.45082 9.21782 4.4745L9.31745 6.47201C9.22753 6.4765 9.20195 6.4326 9.32491 6.50928C9.4721 6.60106 9.6643 6.7558 10.0179 7.04508L11.2843 5.49717ZM11.7234 5.85638L11.2843 5.49717L10.0179 7.04508L10.4569 7.40429L11.7234 5.85638ZM13.1662 7.03684C13.3401 6.96481 13.4087 7.09645 13.1019 6.91298C12.7938 6.72877 12.385 6.39768 11.7234 5.85638L10.4569 7.40429C11.0659 7.90257 11.61 8.35116 12.0754 8.62949C12.5421 8.90857 13.2048 9.18561 13.9315 8.8846L13.1662 7.03684ZM13.3517 5.18193C13.2666 6.0325 13.2116 6.55573 13.124 6.90381C13.0368 7.25048 12.9923 7.10887 13.1662 7.03684L13.9315 8.8846C14.6582 8.58359 14.9309 7.9191 15.0636 7.39176C15.1959 6.86583 15.2634 6.1639 15.3417 5.38093L13.3517 5.18193ZM13.408 4.61816L13.3517 5.18193L15.3417 5.38094L15.3981 4.81717L13.408 4.61816ZM14.1461 2.43377C13.7937 2.75273 13.6424 3.14511 13.5609 3.49655C13.4859 3.82017 13.4482 4.2168 13.408 4.61816L15.3981 4.81717C15.4436 4.3626 15.47 4.11728 15.5092 3.9483C15.542 3.80713 15.5549 3.85626 15.4882 3.91667L14.1461 2.43377ZM16.3931 1.91667C15.9898 1.91667 15.5914 1.91473 15.2619 1.95719C14.9041 2.00331 14.4986 2.11481 14.1461 2.43377L15.4882 3.91667C15.4214 3.97709 15.3738 3.95931 15.5175 3.94079C15.6896 3.91861 15.9363 3.91667 16.3931 3.91667V1.91667ZM18.6065 1.91667H16.3931V3.91667H18.6065V1.91667ZM20.8535 2.43377C20.5011 2.11481 20.0956 2.00331 19.7378 1.95719C19.4083 1.91473 19.0099 1.91667 18.6065 1.91667V3.91667C19.0634 3.91667 19.3101 3.91861 19.4821 3.94079C19.6259 3.95931 19.5783 3.97709 19.5115 3.91667L20.8535 2.43377ZM22.3332 17.5C22.3332 20.1694 20.1692 22.3333 17.4998 22.3333V24.3333C21.2738 24.3333 24.3332 21.274 24.3332 17.5H22.3332ZM17.4998 12.6667C20.1692 12.6667 22.3332 14.8306 22.3332 17.5H24.3332C24.3332 13.7261 21.2738 10.6667 17.4998 10.6667V12.6667ZM12.6665 17.5C12.6665 14.8306 14.8305 12.6667 17.4998 12.6667V10.6667C13.7259 10.6667 10.6665 13.7261 10.6665 17.5H12.6665ZM17.4998 22.3333C14.8305 22.3333 12.6665 20.1694 12.6665 17.5H10.6665C10.6665 21.274 13.7259 24.3333 17.4998 24.3333V22.3333Z" fill="white"/>
</svg>
