<svg width="38" height="36" viewBox="0 0 38 36" fill="none" xmlns="http://www.w3.org/2000/svg">
<path fill-rule="evenodd" clip-rule="evenodd" d="M25.3333 0.333336H25.25H12.75H12.6667L12.6667 4.5C12.6667 5.60457 11.7712 6.5 10.6667 6.5C9.5621 6.5 8.66667 5.60457 8.66667 4.5L8.66667 0.366983C5.38005 0.460832 3.42806 0.816442 2.08058 2.16392C0.25 3.9945 0.25 6.94078 0.25 12.8333V23.25C0.25 29.1426 0.25 32.0888 2.08058 33.9194C3.91116 35.75 6.85743 35.75 12.75 35.75H12.75H25.25H25.25C31.1426 35.75 34.0888 35.75 35.9194 33.9194C37.75 32.0888 37.75 29.1426 37.75 23.25V12.8333C37.75 6.94078 37.75 3.9945 35.9194 2.16392C34.5719 0.816443 32.6199 0.460832 29.3333 0.366983L29.3333 4.5C29.3333 5.60457 28.4379 6.5 27.3333 6.5C26.2288 6.5 25.3333 5.60456 25.3333 4.5L25.3333 0.333336ZM9.66667 17C9.66667 16.4477 10.1144 16 10.6667 16L27.3333 16C27.8856 16 28.3333 16.4477 28.3333 17C28.3333 17.5523 27.8856 18 27.3333 18H10.6667C10.1144 18 9.66667 17.5523 9.66667 17ZM10.6667 24.3333C10.1144 24.3333 9.66667 24.781 9.66667 25.3333C9.66667 25.8856 10.1144 26.3333 10.6667 26.3333H27.3333C27.8856 26.3333 28.3333 25.8856 28.3333 25.3333C28.3333 24.781 27.8856 24.3333 27.3333 24.3333H10.6667Z" fill="white"/>
</svg>
